<svg viewBox="0 0 32 32" fill="none" xmlns="http://www.w3.org/2000/svg">
<path fill-rule="evenodd" clip-rule="evenodd" d="M25.3562 11.8059C22.3874 11.0915 20.1556 8.48509 20.0077 5.33366H6.93325L5.66659 2.66699H1.33325V5.33366H3.99992L8.79992 15.467L6.99992 18.7337C6.53325 19.6003 6.55547 20.4725 7.06659 21.3503C7.5777 22.2281 8.33325 22.667 9.33325 22.667H25.3333V20.0003H9.33325L10.7999 17.3337H20.7333C21.2221 17.3337 21.6721 17.2114 22.0833 16.967C22.4944 16.7225 22.8221 16.3781 23.0666 15.9337L25.3562 11.8059ZM7.44992 28.5503C7.97214 29.0725 8.59992 29.3337 9.33325 29.3337C10.0666 29.3337 10.6944 29.0725 11.2166 28.5503C11.7388 28.0281 11.9999 27.4003 11.9999 26.667C11.9999 25.9337 11.7388 25.3059 11.2166 24.7837C10.6944 24.2614 10.0666 24.0003 9.33325 24.0003C8.59992 24.0003 7.97214 24.2614 7.44992 24.7837C6.9277 25.3059 6.66659 25.9337 6.66659 26.667C6.66659 27.4003 6.9277 28.0281 7.44992 28.5503ZM20.7833 28.5503C21.3055 29.0725 21.9333 29.3337 22.6666 29.3337C23.3999 29.3337 24.0277 29.0725 24.5499 28.5503C25.0721 28.0281 25.3333 27.4003 25.3333 26.667C25.3333 25.9337 25.0721 25.3059 24.5499 24.7837C24.0277 24.2614 23.3999 24.0003 22.6666 24.0003C21.9333 24.0003 21.3055 24.2614 20.7833 24.7837C20.261 25.3059 19.9999 25.9337 19.9999 26.667C19.9999 27.4003 20.261 28.0281 20.7833 28.5503Z" fill="currentColor"/>
<circle cx="27" cy="5" r="5" fill="#7FB7D3"/>
</svg>
