<svg viewBox="0 0 32 32" fill="none" xmlns="http://www.w3.org/2000/svg">
<path d="M13.7184 16.3991L8.01438 10.6951C7.69115 10.3719 7.52954 9.99166 7.52954 9.55435C7.52954 9.11704 7.69116 8.73678 8.01438 8.41355C8.33761 8.09032 8.71787 7.92871 9.15518 7.92871C9.59249 7.92871 9.97275 8.09032 10.296 8.41355L16 14.1175L21.704 8.41355C22.0272 8.09032 22.4075 7.92871 22.8448 7.92871C23.2821 7.92871 23.6623 8.09033 23.9856 8.41355C24.3088 8.73678 24.4704 9.11704 24.4704 9.55435C24.4704 9.99166 24.3088 10.3719 23.9856 10.6951L18.2816 16.3991L23.9856 22.1031C24.3088 22.4264 24.4704 22.8066 24.4704 23.2439C24.4704 23.6812 24.3088 24.0615 23.9856 24.3847C23.6623 24.708 23.2821 24.8696 22.8448 24.8696C22.4075 24.8696 22.0272 24.708 21.704 24.3847L16 18.6807L10.296 24.3847C9.97275 24.708 9.59249 24.8696 9.15518 24.8696C8.71787 24.8696 8.33761 24.708 8.01438 24.3847C7.69116 24.0615 7.52954 23.6812 7.52954 23.2439C7.52954 22.8066 7.69116 22.4264 8.01438 22.1031L13.7184 16.3991Z" fill="currentColor"/>
</svg>
