<svg viewBox="0 0 32 32" fill="none" xmlns="http://www.w3.org/2000/svg">
<path fill-rule="evenodd" clip-rule="evenodd" d="M5.1001 6.45898V25.5338C5.1001 27.7914 6.93014 29.6213 9.1876 29.6213H22.8126C25.0701 29.6213 26.9001 27.7914 26.9001 25.5338V11.9089C26.9001 9.6515 25.0701 7.82147 22.8126 7.82147H6.4626C5.71012 7.82147 5.1001 7.21146 5.1001 6.45898ZM9.52822 15.9964C9.52822 15.4321 9.98574 14.9745 10.5501 14.9745H21.4501C22.0144 14.9745 22.472 15.4321 22.472 15.9964C22.472 16.5608 22.0144 17.0183 21.4501 17.0183H10.5501C9.98574 17.0183 9.52822 16.5608 9.52822 15.9964ZM9.52822 20.7651C9.52822 20.2008 9.98574 19.7433 10.5501 19.7433H18.0438C18.6082 19.7433 19.0657 20.2008 19.0657 20.7651C19.0657 21.3295 18.6082 21.787 18.0438 21.787H10.5501C9.98574 21.787 9.52822 21.3295 9.52822 20.7651Z" fill="currentColor"/>
<path d="M5.6571 5.2143C6.13191 5.42723 6.46263 5.90404 6.46263 6.45812H22.8126C23.2831 6.45812 23.7397 6.51772 24.1751 6.62982V5.5126C24.1751 3.85431 22.7064 2.5805 21.0648 2.81501L6.35307 4.91666C6.09083 4.95413 5.8532 5.05985 5.6571 5.2143Z" fill="currentColor"/>
</svg>
