<svg width="488" height="78" viewBox="0 0 488 78" fill="none" xmlns="http://www.w3.org/2000/svg">
<path d="M24.5096 62.436C19.7509 62.436 15.3362 61.834 11.2656 60.63C7.19489 59.3687 3.75489 57.6773 0.945557 55.556L4.29956 46.87C7.10889 48.8767 10.1762 50.4247 13.5016 51.514C16.8842 52.6033 20.5536 53.148 24.5096 53.148C29.0389 53.148 32.3356 52.4027 34.3996 50.912C36.4636 49.364 37.4956 47.386 37.4956 44.978C37.4956 42.9713 36.7502 41.3947 35.2596 40.248C33.8262 39.1013 31.3322 38.1553 27.7776 37.41L18.3176 35.432C7.53889 33.1387 2.14956 27.606 2.14956 18.834C2.14956 15.05 3.15289 11.7533 5.15956 8.944C7.16622 6.13467 9.94689 3.956 13.5016 2.408C17.0562 0.859999 21.1556 0.0859989 25.7996 0.0859989C29.9276 0.0859989 33.7976 0.716666 37.4096 1.978C41.0216 3.182 44.0316 4.902 46.4396 7.138L43.0856 15.394C38.3269 11.3807 32.5362 9.374 25.7136 9.374C21.7576 9.374 18.6616 10.2053 16.4256 11.868C14.1896 13.5307 13.0716 15.7093 13.0716 18.404C13.0716 20.468 13.7596 22.1307 15.1356 23.392C16.5116 24.596 18.8622 25.542 22.1876 26.23L31.5616 28.208C37.2376 29.412 41.4516 31.304 44.2036 33.884C47.0129 36.464 48.4176 39.904 48.4176 44.204C48.4176 47.816 47.4429 50.998 45.4936 53.75C43.5442 56.502 40.7636 58.652 37.1516 60.2C33.5969 61.6907 29.3829 62.436 24.5096 62.436Z" fill="white"/>
<path d="M56.8335 61.576V0.945998H67.5835V25.628C69.0168 23.3347 70.9375 21.6147 73.3455 20.468C75.7535 19.264 78.4195 18.662 81.3435 18.662C91.2621 18.662 96.2215 24.424 96.2215 35.948V61.576H85.4715V36.464C85.4715 33.196 84.8408 30.8167 83.5795 29.326C82.3755 27.8353 80.4835 27.09 77.9035 27.09C74.7501 27.09 72.2275 28.0933 70.3355 30.1C68.5008 32.0493 67.5835 34.658 67.5835 37.926V61.576H56.8335Z" fill="white"/>
<path d="M126.318 62.436C121.961 62.436 118.177 61.5473 114.966 59.77C111.755 57.9927 109.261 55.47 107.484 52.202C105.707 48.8767 104.818 44.978 104.818 40.506C104.818 36.034 105.707 32.164 107.484 28.896C109.261 25.628 111.755 23.1053 114.966 21.328C118.177 19.5507 121.961 18.662 126.318 18.662C130.675 18.662 134.459 19.5507 137.67 21.328C140.881 23.1053 143.375 25.628 145.152 28.896C146.929 32.164 147.818 36.034 147.818 40.506C147.818 44.978 146.929 48.8767 145.152 52.202C143.375 55.47 140.881 57.9927 137.67 59.77C134.459 61.5473 130.675 62.436 126.318 62.436ZM126.318 54.266C129.529 54.266 132.109 53.1193 134.058 50.826C136.007 48.4753 136.982 45.0353 136.982 40.506C136.982 35.9193 136.007 32.508 134.058 30.272C132.109 27.9787 129.529 26.832 126.318 26.832C123.107 26.832 120.527 27.9787 118.578 30.272C116.629 32.508 115.654 35.9193 115.654 40.506C115.654 45.0353 116.629 48.4753 118.578 50.826C120.527 53.1193 123.107 54.266 126.318 54.266Z" fill="white"/>
<path d="M156.691 77.056V19.522H167.183V26.23C168.387 23.9367 170.193 22.102 172.601 20.726C175.066 19.35 177.847 18.662 180.943 18.662C184.612 18.662 187.823 19.5507 190.575 21.328C193.384 23.1053 195.563 25.628 197.111 28.896C198.659 32.1067 199.433 35.9767 199.433 40.506C199.433 44.978 198.659 48.8767 197.111 52.202C195.563 55.47 193.413 57.9927 190.661 59.77C187.909 61.5473 184.67 62.436 180.943 62.436C177.962 62.436 175.267 61.8053 172.859 60.544C170.508 59.2253 168.702 57.4767 167.441 55.298V77.056H156.691ZM177.933 54.266C181.144 54.266 183.724 53.1193 185.673 50.826C187.622 48.4753 188.597 45.0353 188.597 40.506C188.597 35.9193 187.622 32.508 185.673 30.272C183.724 27.9787 181.144 26.832 177.933 26.832C174.722 26.832 172.142 27.9787 170.193 30.272C168.244 32.508 167.269 35.9193 167.269 40.506C167.269 45.0353 168.244 48.4753 170.193 50.826C172.142 53.1193 174.722 54.266 177.933 54.266Z" fill="white"/>
<path d="M259.645 62.436C253.797 62.436 248.666 61.146 244.251 58.566C239.894 55.986 236.511 52.374 234.103 47.73C231.695 43.0287 230.491 37.5247 230.491 31.218C230.491 24.854 231.695 19.35 234.103 14.706C236.511 10.062 239.894 6.47867 244.251 3.956C248.608 1.376 253.74 0.0859989 259.645 0.0859989C265.55 0.0859989 270.682 1.376 275.039 3.956C279.396 6.47867 282.779 10.062 285.187 14.706C287.595 19.35 288.799 24.8253 288.799 31.132C288.799 37.496 287.595 43.0287 285.187 47.73C282.779 52.374 279.396 55.986 275.039 58.566C270.682 61.146 265.55 62.436 259.645 62.436ZM259.645 52.976C265.206 52.976 269.535 51.0553 272.631 47.214C275.727 43.3727 277.275 38.0407 277.275 31.218C277.275 24.338 275.727 19.006 272.631 15.222C269.592 11.438 265.264 9.546 259.645 9.546C254.084 9.546 249.755 11.438 246.659 15.222C243.563 19.006 242.015 24.338 242.015 31.218C242.015 38.0407 243.563 43.3727 246.659 47.214C249.755 51.0553 254.084 52.976 259.645 52.976Z" fill="white"/>
<path d="M298.96 61.576V19.522H309.452V26.058C310.886 23.65 312.806 21.8153 315.214 20.554C317.68 19.2927 320.432 18.662 323.47 18.662C333.389 18.662 338.348 24.424 338.348 35.948V61.576H327.598V36.464C327.598 33.196 326.968 30.8167 325.706 29.326C324.502 27.8353 322.61 27.09 320.03 27.09C316.877 27.09 314.354 28.0933 312.462 30.1C310.628 32.0493 309.71 34.658 309.71 37.926V61.576H298.96Z" fill="white"/>
<path d="M363.887 62.436C358.899 62.436 355.201 61.0887 352.793 58.394C350.442 55.642 349.267 51.6287 349.267 46.354V0.945998H360.017V45.838C360.017 50.998 362.196 53.578 366.553 53.578C367.184 53.578 367.814 53.5493 368.445 53.492C369.076 53.4347 369.678 53.32 370.251 53.148L370.079 61.662C368.015 62.178 365.951 62.436 363.887 62.436Z" fill="white"/>
<path d="M376.042 10.492V0H388.082V10.492H376.042ZM376.73 61.576V19.522H387.48V61.576H376.73Z" fill="white"/>
<path d="M398.65 61.576V19.522H409.142V26.058C410.575 23.65 412.496 21.8153 414.904 20.554C417.369 19.2927 420.121 18.662 423.16 18.662C433.079 18.662 438.038 24.424 438.038 35.948V61.576H427.288V36.464C427.288 33.196 426.657 30.8167 425.396 29.326C424.192 27.8353 422.3 27.09 419.72 27.09C416.567 27.09 414.044 28.0933 412.152 30.1C410.317 32.0493 409.4 34.658 409.4 37.926V61.576H398.65Z" fill="white"/>
<path d="M469.683 62.436C464.924 62.436 460.825 61.5473 457.385 59.77C453.945 57.9927 451.279 55.47 449.387 52.202C447.552 48.934 446.635 45.064 446.635 40.592C446.635 36.2347 447.523 32.422 449.301 29.154C451.135 25.886 453.629 23.3347 456.783 21.5C459.993 19.608 463.634 18.662 467.704 18.662C473.667 18.662 478.368 20.554 481.809 24.338C485.306 28.122 487.055 33.282 487.055 39.818V43H456.954C457.757 50.5107 462.057 54.266 469.855 54.266C472.205 54.266 474.556 53.922 476.907 53.234C479.257 52.4887 481.407 51.342 483.357 49.794L486.367 57.018C484.36 58.6807 481.837 59.9993 478.799 60.974C475.76 61.9487 472.721 62.436 469.683 62.436ZM468.135 25.972C464.981 25.972 462.43 26.9467 460.48 28.896C458.531 30.8453 457.356 33.4827 456.954 36.808H478.111C477.881 33.3107 476.907 30.6447 475.187 28.81C473.524 26.918 471.173 25.972 468.135 25.972Z" fill="white"/>
</svg>
