<svg viewBox="0 0 32 32" fill="none" xmlns="http://www.w3.org/2000/svg">
<path d="M26.6667 4H17.3334C16.6001 4 16.0001 4.6 16.0001 5.33333V17.3333L20.0001 13.3333H26.6667C27.4001 13.3333 28.0001 12.7333 28.0001 12V5.33333C28.0001 4.6 27.4001 4 26.6667 4ZM25.6401 20.3467L22.2534 19.96C21.4401 19.8667 20.6401 20.1467 20.0667 20.72L17.6134 23.1733C13.8401 21.2533 10.7467 18.1733 8.82672 14.3867L11.2934 11.92C11.8667 11.3467 12.1467 10.5467 12.0534 9.73333L11.6667 6.37333C11.5067 5.02667 10.3734 4.01333 9.01339 4.01333H6.70672C5.20005 4.01333 3.94672 5.26667 4.04005 6.77333C4.74672 18.16 13.8534 27.2533 25.2267 27.96C26.7334 28.0533 27.9867 26.8 27.9867 25.2933V22.9867C28.0001 21.64 26.9867 20.5067 25.6401 20.3467Z" fill="currentColor"/>
</svg>
