<svg viewBox="0 0 32 32" fill="none" xmlns="http://www.w3.org/2000/svg">
<path d="M14.6664 17.3337H7.99972C7.62194 17.3337 7.30527 17.2059 7.04972 16.9503C6.79416 16.6948 6.66638 16.3781 6.66638 16.0003C6.66638 15.6225 6.79416 15.3059 7.04972 15.0503C7.30527 14.7948 7.62194 14.667 7.99972 14.667H14.6664V8.00033C14.6664 7.62255 14.7942 7.30588 15.0497 7.05033C15.3053 6.79477 15.6219 6.66699 15.9997 6.66699C16.3775 6.66699 16.6942 6.79477 16.9497 7.05033C17.2053 7.30588 17.333 7.62255 17.333 8.00033V14.667H23.9997C24.3775 14.667 24.6942 14.7948 24.9497 15.0503C25.2053 15.3059 25.333 15.6225 25.333 16.0003C25.333 16.3781 25.2053 16.6948 24.9497 16.9503C24.6942 17.2059 24.3775 17.3337 23.9997 17.3337H17.333V24.0003C17.333 24.3781 17.2053 24.6948 16.9497 24.9503C16.6942 25.2059 16.3775 25.3337 15.9997 25.3337C15.6219 25.3337 15.3053 25.2059 15.0497 24.9503C14.7942 24.6948 14.6664 24.3781 14.6664 24.0003V17.3337Z" fill="currentColor"/>
</svg>
