<svg width="86" height="86" viewBox="0 0 86 86" fill="none" xmlns="http://www.w3.org/2000/svg">
<g clip-path="url(#clip0_1540_4350)">
<circle cx="43.3527" cy="42.6473" r="42.6473" fill="black"/>
<circle cx="43.3527" cy="42.6474" r="15.6992" fill="white"/>
<path d="M73.0252 42.648C73.0252 46.5447 72.2577 50.4032 70.7665 54.0032C69.2753 57.6032 67.0897 60.8743 64.3343 63.6296C61.579 66.385 58.3079 68.5706 54.7079 70.0618C51.1079 71.553 47.2494 72.3205 43.3527 72.3205C39.4561 72.3205 35.5976 71.553 31.9976 70.0618C28.3976 68.5706 25.1265 66.385 22.3712 63.6296C19.6158 60.8743 17.4302 57.6032 15.939 54.0032C14.4478 50.4032 13.6803 46.5447 13.6803 42.648C13.6803 38.7514 14.4478 34.8929 15.939 31.2929C17.4302 27.6929 19.6158 24.4218 22.3712 21.6664C25.1265 18.9111 28.3976 16.7254 31.9976 15.2343C35.5976 13.7431 39.4561 12.9756 43.3528 12.9756C47.2494 12.9756 51.1079 13.7431 54.7079 15.2343C58.3079 16.7254 61.579 18.9111 64.3343 21.6664C67.0897 24.4218 69.2753 27.6929 70.7665 31.2929C72.2577 34.8929 73.0252 38.7514 73.0252 42.648L73.0252 42.648Z" stroke="white" stroke-width="3"/>
<circle cx="57.9864" cy="26.0001" r="20.6485" fill="black"/>
</g>
<defs>
<clipPath id="clip0_1540_4350">
<rect width="85.2946" height="85.2946" fill="white" transform="translate(0.705444)"/>
</clipPath>
</defs>
</svg>
